<svg width="512" height="512" xmlns="http://www.w3.org/2000/svg">

 <g>
  <title>Layer 1</title>
  <rect stroke="#000" id="svg_1" height="512" width="512" y="0" x="0" fill="#007fff"/>
  <path stroke-width="4" id="svg_4" d="m92,98.5c0,0 -70,382 -70,381.5c0,0.5 302,-37.5 302,-37.5c0,0 -214,30 -237,4c-23,-26 36,-343 36,-343.5" opacity="NaN" stroke="#5f00bf" fill="#00ffff"/>
  <path stroke-width="4" id="svg_5" d="m143,104.5c16,-11 -22,133 -22,133c0,0 89,12 89,11.5c0,0.5 8,-28.5 8,-29c0,0.5 -60,-9.5 -60,-9.5c0,0 5,-26 5,-26.5c0,0.5 49,9.5 49,9c0,0.5 8,-25.5 8,-26c0,0.5 -45,-6.5 -45,-7c0,0.5 2,-20.5 2,-21c0,0.5 63,10.5 63,10.5c0,0 3,-32 3,-32.5" opacity="NaN" stroke="#5f00bf" fill="#00ffff"/>
  <path id="svg_6" d="m276,120.5c0,0 -36,137 -36,136.5c0,0.5 31,5.5 31,5c0,0.5 11,-51.5 11,-52c0,0.5 38,10.5 38,10c0,0.5 20,59.5 20,59c0,0.5 39,10.5 39,10c0,0.5 -66,-159.5 -66,-160" opacity="NaN" stroke-width="4" stroke="#5f00bf" fill="#00ffff"/>
  <path id="svg_7" d="m346,136.5l50,157.5l74,24l-8,-35l-45,-14l-33,-102l48,23l-17,-33" opacity="NaN" stroke-width="4" stroke="#5f00bf" fill="#00ffff"/>
  <path id="svg_8" d="m447,164.5l7,27.5l35,15l4,324l22,1l-3,-347" opacity="NaN" stroke-width="4" stroke="#5f00bf" fill="#00ffff"/>
  <ellipse stroke="#ffff00" ry="47" rx="127.5" id="svg_9" cy="361.5" cx="280.5" stroke-width="4" fill="none"/>
  <ellipse transform="rotate(21.7656 280.5 361.5)" stroke="#ffff00" ry="47" rx="127.5" id="svg_10" cy="361.5" cx="280.5" stroke-width="4" fill="none"/>
  <ellipse transform="rotate(-21.6855 280.5 361.5)" stroke="#ffff00" ry="47" rx="127.5" id="svg_11" cy="361.5" cx="280.5" stroke-width="4" fill="none"/>
  <path id="svg_13" d="m50,77.5c48,0 241,25 281,34c40,9 165,49 199,59" opacity="NaN" stroke-width="16" stroke="#ffff00" fill="none"/>
  <path id="svg_14" d="m-97.505,210.86671l0.56913,0l0.17587,-0.38196l0.17587,0.38196l0.56913,0l-0.46044,0.23606l0.17588,0.38196l-0.46044,-0.23607l-0.46044,0.23607l0.17588,-0.38196l-0.46044,-0.23606z" stroke-width="16" stroke="#ffff00" fill="none"/>
 </g>
</svg>